<svg id="efhS42JDNgi1" xmlns="http://www.w3.org/2000/svg" xmlns:xlink="http://www.w3.org/1999/xlink" viewBox="0 0 300 300" shape-rendering="geometricPrecision" text-rendering="geometricPrecision" project-id="58c8a4d167844c0eabe6537b5b73ad47" export-id="cba76558cf9c47db98e43e5f9140b454" cached="false"><ellipse rx="149.929639" ry="149.929639" transform="matrix(0.926519 0 0 0.926519 150.070361 150.070361)" stroke-width="0"/><g transform="translate(46.616712 218.1875)"><path d="M56.849766,-106.375v106.375h-42.125v-135.25h39.5Zm-5,34.125l-9.875.25q0-15.5,3.75-27.6875t10.625-20.6875t16.4375-12.9375t21.3125-4.4375q9.375,0,17.1875,2.75t13.5,8.875t8.75,16.1875t3.0625,24.8125v85.125h-42.375v-85.25q0-8.125-2.25-12.4375t-6.5-5.9375-10.375-1.625q-6.5,0-11,2.5t-7.1875,6.9375-3.875,10.4375-1.1875,13.125Zm110.875,52.5q0-9,6.5-15.0625t16.75-6.0625q10.375,0,16.8125,6.0625t6.4375,15.0625-6.4375,15.0625-16.8125,6.0625q-10.25,0-16.75-6.0625t-6.5-15.0625Z" fill="#fff" stroke-width="0"/></g></svg>
